<svg xmlns="http://www.w3.org/2000/svg" x="0px" y="0px" width="200px" height="200px" viewBox="0,0,256,256"
     style="fill:#000000;">
    <g transform="translate(35.84,35.84) scale(0.72,0.72)"><g fill="#1e293b" fill-rule="nonzero" stroke="none" stroke-width="1" stroke-linecap="butt" stroke-linejoin="miter" stroke-miterlimit="10" stroke-dasharray="" stroke-dashoffset="0" font-family="none" font-weight="none" font-size="none" text-anchor="none" style="mix-blend-mode: normal"><path d="M19.98222,302.22222c-36.56371,0 -66.20444,-29.64074 -66.20444,-66.20444v-216.03556c0,-36.56371 29.64074,-66.20444 66.20444,-66.20444h216.03556c36.56371,0 66.20444,29.64074 66.20444,66.20444v216.03556c0,36.56371 -29.64074,66.20444 -66.20444,66.20444z" id="shape"></path></g><g fill="#dddddd" fill-rule="nonzero" stroke="none" stroke-width="1" stroke-linecap="butt" stroke-linejoin="miter" stroke-miterlimit="10" stroke-dasharray="" stroke-dashoffset="0" font-family="none" font-weight="none" font-size="none" text-anchor="none" style="mix-blend-mode: normal"><g transform="scale(5.12,5.12)"><path d="M5,4c-1.654,0 -3,1.346 -3,3v6h1h44h1v-2c0,-1.654 -1.346,-3 -3,-3l-26.95508,0.00586c-0.279,-0.101 -0.85602,-1.01967 -1.16602,-1.51367c-0.767,-1.224 -1.56191,-2.49219 -2.87891,-2.49219zM3,15c-0.552,0 -1,0.448 -1,1v27c0,1.657 1.343,3 3,3h40c1.657,0 3,-1.343 3,-3v-27c0,-0.552 -0.448,-1 -1,-1z"></path></g></g></g>
</svg>