<svg viewBox="0 0 24.00 24.00" xmlns="http://www.w3.org/2000/svg" fill="#dddddd" stroke="#dddddd" stroke-width="0.00024000000000000003"><g id="SVGRepo_bgCarrier" stroke-width="0"><rect x="0" y="0" width="24.00" height="24.00" rx="1.44" fill="#1e293b" strokewidth="0"></rect></g><g id="SVGRepo_tracerCarrier" stroke-linecap="round" stroke-linejoin="round"></g><g id="SVGRepo_iconCarrier"> <g> <path fill="none" d="M0 0h24v24H0z"></path> <path d="M12.414 5H21a1 1 0 0 1 1 1v14a1 1 0 0 1-1 1H3a1 1 0 0 1-1-1V4a1 1 0 0 1 1-1h7.414l2 2zM11 16v2h2v-2h-2zm-2.433-5.187l1.962.393A1.5 1.5 0 1 1 12 13h-1v2h1a3.5 3.5 0 1 0-3.433-4.187z"></path> </g> </g></svg>